<svg xmlns="http://www.w3.org/2000/svg" xmlns:xlink="http://www.w3.org/1999/xlink" width="40" zoomAndPan="magnify" viewBox="0 0 30 30.000001" height="40" preserveAspectRatio="xMidYMid meet" version="1.0"><defs><g/><clipPath id="bc78e76041"><path d="M 0.484375 0 L 29.515625 0 L 29.515625 29.03125 L 0.484375 29.03125 Z M 0.484375 0 " clip-rule="nonzero"/></clipPath><clipPath id="9798118080"><path d="M 3 10.160156 L 11 10.160156 L 11 16 L 3 16 Z M 3 10.160156 " clip-rule="nonzero"/></clipPath><clipPath id="b808a12576"><path d="M 4 13 L 12.140625 13 L 12.140625 18 L 4 18 Z M 4 13 " clip-rule="nonzero"/></clipPath><clipPath id="f4ea6bf911"><path d="M 2.308594 11 L 5 11 L 5 18.871094 L 2.308594 18.871094 Z M 2.308594 11 " clip-rule="nonzero"/></clipPath><clipPath id="0d5e7ed096"><path d="M 3 15 L 12 15 L 12 18.871094 L 3 18.871094 Z M 3 15 " clip-rule="nonzero"/></clipPath></defs><g clip-path="url(#bc78e76041)"><path fill="#ffffff" d="M 0.484375 0 L 29.515625 0 L 29.515625 36.289062 L 0.484375 36.289062 Z M 0.484375 0 " fill-opacity="1" fill-rule="nonzero"/><path fill="#ffffff" d="M 0.484375 0 L 29.515625 0 L 29.515625 29.03125 L 0.484375 29.03125 Z M 0.484375 0 " fill-opacity="1" fill-rule="nonzero"/><path fill="#ffffff" d="M 0.484375 0 L 29.515625 0 L 29.515625 29.03125 L 0.484375 29.03125 Z M 0.484375 0 " fill-opacity="1" fill-rule="nonzero"/></g><g fill="#d20c57" fill-opacity="1"><g transform="translate(12.953225, 13.064518)"><g><path d="M 2.515625 -1.4375 L 2.515625 -0.890625 C 2.453125 -0.578125 2.304688 -0.34375 2.078125 -0.1875 C 1.859375 -0.03125 1.609375 0.046875 1.328125 0.046875 C 0.984375 0.046875 0.6875 -0.0820312 0.4375 -0.34375 C 0.195312 -0.601562 0.078125 -0.914062 0.078125 -1.28125 C 0.078125 -1.65625 0.195312 -1.972656 0.4375 -2.234375 C 0.675781 -2.492188 0.972656 -2.625 1.328125 -2.625 C 1.742188 -2.625 2.078125 -2.476562 2.328125 -2.1875 L 1.9375 -1.765625 C 1.800781 -1.984375 1.609375 -2.09375 1.359375 -2.09375 C 1.179688 -2.09375 1.023438 -2.015625 0.890625 -1.859375 C 0.765625 -1.703125 0.703125 -1.507812 0.703125 -1.28125 C 0.703125 -1.0625 0.765625 -0.875 0.890625 -0.71875 C 1.023438 -0.570312 1.179688 -0.5 1.359375 -0.5 C 1.515625 -0.5 1.644531 -0.539062 1.75 -0.625 C 1.863281 -0.71875 1.921875 -0.835938 1.921875 -0.984375 L 1.328125 -0.984375 L 1.328125 -1.4375 Z M 2.515625 -1.4375 "/></g></g></g><g fill="#d20c57" fill-opacity="1"><g transform="translate(15.546145, 13.064518)"><g><path d="M 0.296875 -0.1875 C 0.148438 -0.351562 0.078125 -0.554688 0.078125 -0.796875 C 0.078125 -1.035156 0.148438 -1.238281 0.296875 -1.40625 C 0.441406 -1.570312 0.632812 -1.65625 0.875 -1.65625 C 1.082031 -1.65625 1.253906 -1.585938 1.390625 -1.453125 L 1.390625 -1.609375 L 1.953125 -1.609375 L 1.953125 0 L 1.40625 0 L 1.40625 -0.1875 L 1.390625 -0.1875 C 1.253906 -0.03125 1.082031 0.046875 0.875 0.046875 C 0.632812 0.046875 0.441406 -0.03125 0.296875 -0.1875 Z M 0.765625 -1.0625 C 0.691406 -1 0.65625 -0.910156 0.65625 -0.796875 C 0.65625 -0.691406 0.6875 -0.601562 0.75 -0.53125 C 0.820312 -0.457031 0.914062 -0.421875 1.03125 -0.421875 C 1.144531 -0.421875 1.234375 -0.457031 1.296875 -0.53125 C 1.367188 -0.601562 1.40625 -0.691406 1.40625 -0.796875 C 1.40625 -0.910156 1.367188 -1 1.296875 -1.0625 C 1.222656 -1.132812 1.132812 -1.171875 1.03125 -1.171875 C 0.925781 -1.171875 0.835938 -1.132812 0.765625 -1.0625 Z M 0.765625 -1.0625 "/></g></g></g><g fill="#d20c57" fill-opacity="1"><g transform="translate(17.68241, 13.064518)"><g><path d="M 0.1875 0 L 0.1875 -2.6875 L 0.734375 -2.6875 L 0.734375 0 Z M 0.1875 0 "/></g></g></g><g fill="#d20c57" fill-opacity="1"><g transform="translate(18.611357, 13.064518)"><g><path d="M 0.1875 0 L 0.1875 -2.6875 L 0.734375 -2.6875 L 0.734375 0 Z M 0.1875 0 "/></g></g></g><g fill="#d20c57" fill-opacity="1"><g transform="translate(19.540304, 13.064518)"><g><path d="M 1.8125 -0.71875 L 0.640625 -0.71875 C 0.640625 -0.613281 0.675781 -0.53125 0.75 -0.46875 C 0.820312 -0.414062 0.90625 -0.390625 1 -0.390625 C 1.082031 -0.390625 1.148438 -0.398438 1.203125 -0.421875 C 1.253906 -0.453125 1.316406 -0.503906 1.390625 -0.578125 L 1.78125 -0.375 C 1.613281 -0.09375 1.335938 0.046875 0.953125 0.046875 C 0.710938 0.046875 0.503906 -0.0351562 0.328125 -0.203125 C 0.160156 -0.367188 0.078125 -0.566406 0.078125 -0.796875 C 0.078125 -1.035156 0.160156 -1.238281 0.328125 -1.40625 C 0.503906 -1.570312 0.710938 -1.65625 0.953125 -1.65625 C 1.203125 -1.65625 1.40625 -1.578125 1.5625 -1.421875 C 1.726562 -1.273438 1.8125 -1.066406 1.8125 -0.796875 C 1.8125 -0.765625 1.8125 -0.738281 1.8125 -0.71875 Z M 0.65625 -1.03125 L 1.265625 -1.03125 C 1.253906 -1.113281 1.222656 -1.175781 1.171875 -1.21875 C 1.117188 -1.269531 1.050781 -1.296875 0.96875 -1.296875 C 0.875 -1.296875 0.800781 -1.269531 0.75 -1.21875 C 0.695312 -1.164062 0.664062 -1.101562 0.65625 -1.03125 Z M 0.65625 -1.03125 "/></g></g></g><g fill="#d20c57" fill-opacity="1"><g transform="translate(21.426349, 13.064518)"><g><path d="M 0.1875 0 L 0.1875 -1.609375 L 0.734375 -1.609375 L 0.734375 -1.375 L 0.75 -1.375 C 0.75 -1.382812 0.753906 -1.394531 0.765625 -1.40625 C 0.773438 -1.414062 0.796875 -1.4375 0.828125 -1.46875 C 0.859375 -1.5 0.890625 -1.523438 0.921875 -1.546875 C 0.960938 -1.578125 1.007812 -1.601562 1.0625 -1.625 C 1.125 -1.644531 1.179688 -1.65625 1.234375 -1.65625 C 1.296875 -1.65625 1.351562 -1.644531 1.40625 -1.625 C 1.46875 -1.601562 1.515625 -1.585938 1.546875 -1.578125 L 1.59375 -1.546875 L 1.359375 -1.078125 C 1.285156 -1.140625 1.1875 -1.171875 1.0625 -1.171875 C 1 -1.171875 0.941406 -1.15625 0.890625 -1.125 C 0.847656 -1.09375 0.816406 -1.054688 0.796875 -1.015625 C 0.773438 -0.972656 0.757812 -0.9375 0.75 -0.90625 C 0.738281 -0.882812 0.734375 -0.863281 0.734375 -0.84375 L 0.734375 0 Z M 0.1875 0 "/></g></g></g><g fill="#d20c57" fill-opacity="1"><g transform="translate(22.983977, 13.064518)"><g><path d="M 1.40625 -1.609375 L 2.046875 -1.609375 L 0.78125 0.8125 L 0.140625 0.8125 L 0.703125 -0.25 L -0.0625 -1.609375 L 0.578125 -1.609375 L 1.015625 -0.78125 Z M 1.40625 -1.609375 "/></g></g></g><g fill="#d20c57" fill-opacity="1"><g transform="translate(12.953225, 17.419357)"><g><path d="M 0.1875 -2.578125 L 1.109375 -2.578125 C 1.359375 -2.578125 1.5625 -2.507812 1.71875 -2.375 C 1.875 -2.25 1.953125 -2.0625 1.953125 -1.8125 C 1.953125 -1.625 1.90625 -1.460938 1.8125 -1.328125 C 1.71875 -1.203125 1.585938 -1.113281 1.421875 -1.0625 L 2.3125 0 L 1.5625 0 L 0.78125 -1.015625 L 0.78125 0 L 0.1875 0 Z M 0.78125 -1.4375 L 0.84375 -1.4375 C 0.894531 -1.4375 0.9375 -1.4375 0.96875 -1.4375 C 1.007812 -1.4375 1.054688 -1.441406 1.109375 -1.453125 C 1.160156 -1.472656 1.195312 -1.492188 1.21875 -1.515625 C 1.25 -1.535156 1.273438 -1.566406 1.296875 -1.609375 C 1.316406 -1.648438 1.328125 -1.703125 1.328125 -1.765625 C 1.328125 -1.828125 1.316406 -1.878906 1.296875 -1.921875 C 1.273438 -1.972656 1.25 -2.007812 1.21875 -2.03125 C 1.195312 -2.050781 1.160156 -2.066406 1.109375 -2.078125 C 1.054688 -2.097656 1.007812 -2.109375 0.96875 -2.109375 C 0.9375 -2.109375 0.894531 -2.109375 0.84375 -2.109375 L 0.78125 -2.109375 Z M 0.78125 -1.4375 "/></g></g></g><g fill="#d20c57" fill-opacity="1"><g transform="translate(15.192706, 17.419357)"><g><path d="M 0.234375 -2.5 C 0.304688 -2.5625 0.382812 -2.59375 0.46875 -2.59375 C 0.5625 -2.59375 0.640625 -2.5625 0.703125 -2.5 C 0.765625 -2.4375 0.796875 -2.359375 0.796875 -2.265625 C 0.796875 -2.171875 0.765625 -2.09375 0.703125 -2.03125 C 0.640625 -1.96875 0.5625 -1.9375 0.46875 -1.9375 C 0.382812 -1.9375 0.304688 -1.96875 0.234375 -2.03125 C 0.171875 -2.09375 0.140625 -2.171875 0.140625 -2.265625 C 0.140625 -2.359375 0.171875 -2.4375 0.234375 -2.5 Z M 0.1875 -1.609375 L 0.1875 0 L 0.734375 0 L 0.734375 -1.609375 Z M 0.1875 -1.609375 "/></g></g></g><g fill="#d20c57" fill-opacity="1"><g transform="translate(16.137291, 17.419357)"><g><path d="M 0.1875 0 L 0.1875 -2.6875 L 0.734375 -2.6875 L 0.734375 -1.4375 L 0.75 -1.4375 C 0.894531 -1.582031 1.046875 -1.65625 1.203125 -1.65625 C 1.285156 -1.65625 1.363281 -1.644531 1.4375 -1.625 C 1.519531 -1.601562 1.597656 -1.566406 1.671875 -1.515625 C 1.742188 -1.472656 1.800781 -1.410156 1.84375 -1.328125 C 1.882812 -1.253906 1.90625 -1.164062 1.90625 -1.0625 L 1.90625 0 L 1.359375 0 L 1.359375 -0.90625 C 1.359375 -0.988281 1.332031 -1.0625 1.28125 -1.125 C 1.226562 -1.1875 1.15625 -1.21875 1.0625 -1.21875 C 0.976562 -1.21875 0.898438 -1.1875 0.828125 -1.125 C 0.765625 -1.0625 0.734375 -0.988281 0.734375 -0.90625 L 0.734375 0 Z M 0.1875 0 "/></g></g></g><g fill="#d20c57" fill-opacity="1"><g transform="translate(18.204745, 17.419357)"><g><path d="M 0.296875 -0.1875 C 0.148438 -0.351562 0.078125 -0.554688 0.078125 -0.796875 C 0.078125 -1.035156 0.148438 -1.238281 0.296875 -1.40625 C 0.441406 -1.570312 0.632812 -1.65625 0.875 -1.65625 C 1.082031 -1.65625 1.253906 -1.585938 1.390625 -1.453125 L 1.390625 -1.609375 L 1.953125 -1.609375 L 1.953125 0 L 1.40625 0 L 1.40625 -0.1875 L 1.390625 -0.1875 C 1.253906 -0.03125 1.082031 0.046875 0.875 0.046875 C 0.632812 0.046875 0.441406 -0.03125 0.296875 -0.1875 Z M 0.765625 -1.0625 C 0.691406 -1 0.65625 -0.910156 0.65625 -0.796875 C 0.65625 -0.691406 0.6875 -0.601562 0.75 -0.53125 C 0.820312 -0.457031 0.914062 -0.421875 1.03125 -0.421875 C 1.144531 -0.421875 1.234375 -0.457031 1.296875 -0.53125 C 1.367188 -0.601562 1.40625 -0.691406 1.40625 -0.796875 C 1.40625 -0.910156 1.367188 -1 1.296875 -1.0625 C 1.222656 -1.132812 1.132812 -1.171875 1.03125 -1.171875 C 0.925781 -1.171875 0.835938 -1.132812 0.765625 -1.0625 Z M 0.765625 -1.0625 "/></g></g></g><g fill="#d20c57" fill-opacity="1"><g transform="translate(20.34101, 17.419357)"><g><path d="M 0.1875 0 L 0.1875 -1.609375 L 0.734375 -1.609375 L 0.734375 -1.4375 L 0.75 -1.4375 C 0.894531 -1.582031 1.046875 -1.65625 1.203125 -1.65625 C 1.285156 -1.65625 1.363281 -1.644531 1.4375 -1.625 C 1.519531 -1.601562 1.597656 -1.566406 1.671875 -1.515625 C 1.742188 -1.472656 1.800781 -1.410156 1.84375 -1.328125 C 1.882812 -1.253906 1.90625 -1.164062 1.90625 -1.0625 L 1.90625 0 L 1.359375 0 L 1.359375 -0.90625 C 1.359375 -0.988281 1.332031 -1.0625 1.28125 -1.125 C 1.226562 -1.1875 1.15625 -1.21875 1.0625 -1.21875 C 0.976562 -1.21875 0.898438 -1.1875 0.828125 -1.125 C 0.765625 -1.0625 0.734375 -0.988281 0.734375 -0.90625 L 0.734375 0 Z M 0.1875 0 "/></g></g></g><g fill="#d20c57" fill-opacity="1"><g transform="translate(22.408464, 17.419357)"><g><path d="M 0.1875 0 L 0.1875 -1.609375 L 0.734375 -1.609375 L 0.734375 -1.4375 L 0.75 -1.4375 C 0.894531 -1.582031 1.046875 -1.65625 1.203125 -1.65625 C 1.285156 -1.65625 1.363281 -1.644531 1.4375 -1.625 C 1.519531 -1.601562 1.597656 -1.566406 1.671875 -1.515625 C 1.742188 -1.472656 1.800781 -1.410156 1.84375 -1.328125 C 1.882812 -1.253906 1.90625 -1.164062 1.90625 -1.0625 L 1.90625 0 L 1.359375 0 L 1.359375 -0.90625 C 1.359375 -0.988281 1.332031 -1.0625 1.28125 -1.125 C 1.226562 -1.1875 1.15625 -1.21875 1.0625 -1.21875 C 0.976562 -1.21875 0.898438 -1.1875 0.828125 -1.125 C 0.765625 -1.0625 0.734375 -0.988281 0.734375 -0.90625 L 0.734375 0 Z M 0.1875 0 "/></g></g></g><g fill="#d20c57" fill-opacity="1"><g transform="translate(24.475919, 17.419357)"><g><path d="M 0.296875 -0.1875 C 0.148438 -0.351562 0.078125 -0.554688 0.078125 -0.796875 C 0.078125 -1.035156 0.148438 -1.238281 0.296875 -1.40625 C 0.441406 -1.570312 0.632812 -1.65625 0.875 -1.65625 C 1.082031 -1.65625 1.253906 -1.585938 1.390625 -1.453125 L 1.390625 -1.609375 L 1.953125 -1.609375 L 1.953125 0 L 1.40625 0 L 1.40625 -0.1875 L 1.390625 -0.1875 C 1.253906 -0.03125 1.082031 0.046875 0.875 0.046875 C 0.632812 0.046875 0.441406 -0.03125 0.296875 -0.1875 Z M 0.765625 -1.0625 C 0.691406 -1 0.65625 -0.910156 0.65625 -0.796875 C 0.65625 -0.691406 0.6875 -0.601562 0.75 -0.53125 C 0.820312 -0.457031 0.914062 -0.421875 1.03125 -0.421875 C 1.144531 -0.421875 1.234375 -0.457031 1.296875 -0.53125 C 1.367188 -0.601562 1.40625 -0.691406 1.40625 -0.796875 C 1.40625 -0.910156 1.367188 -1 1.296875 -1.0625 C 1.222656 -1.132812 1.132812 -1.171875 1.03125 -1.171875 C 0.925781 -1.171875 0.835938 -1.132812 0.765625 -1.0625 Z M 0.765625 -1.0625 "/></g></g></g><g clip-path="url(#9798118080)"><path fill="#ed0e64" d="M 8.679688 12.429688 C 8.707031 12.554688 8.730469 12.683594 8.75 12.8125 C 8.796875 12.8125 8.84375 12.8125 8.894531 12.8125 C 8.695312 11.46875 8.046875 10.480469 7.28125 10.480469 C 6.585938 10.480469 5.992188 11.285156 5.738281 12.429688 Z M 3.253906 12.621094 C 3.433594 12.1875 3.957031 11.929688 4.6875 11.84375 C 2.613281 12.425781 3.710938 13.71875 4.230469 14.210938 L 4.550781 12.429688 L 5.292969 12.429688 C 5.214844 12.816406 5.175781 13.230469 5.175781 13.65625 L 5.320312 13.65625 C 5.324219 12.753906 5.511719 11.902344 5.851562 11.257812 C 6.023438 10.925781 6.230469 10.660156 6.460938 10.476562 C 6.71875 10.269531 6.992188 10.164062 7.28125 10.164062 C 7.566406 10.164062 7.84375 10.269531 8.101562 10.476562 C 8.332031 10.660156 8.535156 10.925781 8.710938 11.257812 C 8.890625 11.597656 9.027344 11.996094 9.117188 12.429688 L 10.011719 12.429688 L 10.214844 13.5625 C 9.179688 13.488281 8.308594 13.460938 7.316406 13.800781 C 6.386719 14.117188 5.671875 14.558594 4.976562 15.242188 C 3.667969 14.351562 2.953125 13.339844 3.253906 12.621094 " fill-opacity="1" fill-rule="nonzero"/></g><g clip-path="url(#b808a12576)"><path fill="#d20c57" d="M 7.246094 13.664062 C 8.238281 13.324219 9.269531 13.308594 10.214844 13.5625 L 10.820312 16.921875 C 11.039062 16.933594 11.5625 16.945312 12.140625 16.792969 C 11.210938 17.316406 9.214844 17.175781 7.136719 16.363281 C 6.320312 16.042969 5.585938 15.652344 4.976562 15.242188 C 5.542969 14.539062 6.316406 13.984375 7.246094 13.664062 " fill-opacity="1" fill-rule="nonzero"/></g><g clip-path="url(#f4ea6bf911)"><path fill="#a7a5a6" d="M 2.101562 13.027344 C 2.257812 11.734375 3.859375 11.816406 3.859375 11.816406 C 3.164062 11.921875 2.671875 12.191406 2.492188 12.617188 C 2.148438 13.445312 3.078125 14.632812 4.699219 15.625 C 4.519531 16.257812 4.351562 16.613281 4.226562 17.164062 C 4.105469 17.699219 4.035156 18.214844 3.964844 18.832031 C 3.664062 18.734375 3.46875 18.433594 3.527344 18.113281 L 3.964844 15.6875 C 3.339844 15.203125 1.976562 14.023438 2.101562 13.027344 " fill-opacity="1" fill-rule="nonzero"/></g><g clip-path="url(#0d5e7ed096)"><path fill="#918f8f" d="M 4.699219 15.625 C 5.253906 15.964844 5.890625 16.285156 6.582031 16.554688 C 8.207031 17.191406 9.785156 17.4375 10.886719 17.292969 L 11.035156 18.113281 C 11.105469 18.507812 10.792969 18.867188 10.378906 18.867188 L 4.179688 18.867188 C 4.105469 18.867188 4.03125 18.855469 3.964844 18.832031 C 3.808594 17.695312 4.085938 16.5625 4.699219 15.625 " fill-opacity="1" fill-rule="nonzero"/></g></svg>
